<svg width="530" height="120" viewBox="0 0 530 120" fill="none" xmlns="http://www.w3.org/2000/svg">
<g clip-path="url(#clip0_9572_32782)">
<path d="M122.655 41.7849H112.995V102.185H122.655V41.7849Z" fill="white"/>
<path d="M190.335 21.575V90.315C189.695 102.185 180.195 102.995 171.265 102.995L168.805 93.305C169.665 93.405 180.675 95.315 180.675 88.425V30.485H139.315V21.5649H183.475L190.335 21.575Z" fill="white"/>
<path d="M120.475 16.585L112.465 22.205C116.895 26.745 126.065 37.255 126.155 37.365L134.265 31.835C133.855 31.315 126.335 22.625 120.485 16.585H120.475Z" fill="white"/>
<path d="M169.475 42.3749V41.7849H133.845V84.5449H169.475V83.9549V42.3849V42.3749ZM160.835 76.2449H142.505V67.3149H160.835V76.2449ZM160.835 59.015H142.505V50.0849H160.835V59.015Z" fill="white"/>
<path d="M87.4849 92.295C78.1549 93.775 68.7649 92.635 65.8749 89.555C62.6649 86.145 63.1249 80.755 63.1249 74.605V18.395H52.7349V76.925C52.7349 87.235 53.4349 92.175 59.1749 97.515C65.1149 103.045 79.2649 102.885 85.9349 102.185L87.4849 92.295Z" fill="white"/>
<path d="M14.8748 41.705H4.87476V92.725H14.8748V41.705Z" fill="white"/>
<path d="M34.8647 18.395H24.8647V91.885H34.8647V18.395Z" fill="white"/>
<path d="M83.9448 43.725C80.0648 44.875 72.2748 46.905 59.1648 49.235L60.9048 59.015C73.0048 56.865 79.3348 55.345 83.9048 54.045L83.9448 43.725Z" fill="white"/>
<path d="M45.8849 81.6749C40.3949 83.5949 27.1349 88.1249 -0.765137 93.1449L0.544861 103.415C26.5849 98.7549 38.5349 94.5849 45.6049 92.2449L45.8949 81.6749H45.8849Z" fill="white"/>
<path d="M47.0748 47.135H31.9348V56.505H47.0748V47.135Z" fill="white"/>
<path d="M270.465 47.105C268.755 45.475 266.735 44.215 264.405 43.325C262.065 42.435 259.455 41.995 256.565 41.995C253.675 41.995 250.965 42.515 248.445 43.555C245.925 44.595 243.695 46.185 241.775 48.335V19.865H230.435V99.045H241.775V64.685C241.775 60.385 242.925 57.215 245.225 55.175C247.525 53.135 250.265 52.115 253.455 52.115C256.645 52.115 259.335 53.115 261.515 55.115C263.705 57.115 264.795 60.305 264.795 64.675V99.035H276.135V63.005C276.135 59.815 275.725 56.905 274.915 54.275C274.095 51.645 272.615 49.255 270.465 47.105Z" fill="white"/>
<path d="M335.015 49.495C332.975 47.085 330.475 45.235 327.515 43.935C324.545 42.645 321.175 41.985 317.395 41.985C310.125 41.985 304.325 44.475 299.995 49.435C295.655 54.405 293.485 61.525 293.485 70.785C293.485 76.125 294.145 80.645 295.475 84.345C296.815 88.055 298.615 91.035 300.875 93.305C303.145 95.565 305.805 97.185 308.885 98.195C311.965 99.195 315.825 99.695 319.385 99.695C331.155 99.695 337.285 93.165 337.285 93.165L334.375 82.935C332.415 84.895 328.695 89.915 319.055 89.915C314.395 89.915 310.825 88.505 308.375 85.685C305.935 82.865 304.705 79.005 304.705 74.115H341.295V69.335C341.295 65.255 340.755 61.535 339.675 58.155C338.595 54.785 337.045 51.885 335.005 49.485L335.015 49.495ZM304.715 65.635C304.785 63.925 304.895 63.145 305.045 62.065C305.195 60.985 305.565 59.815 306.155 58.555C307.115 56.415 308.545 54.685 310.435 53.385C312.325 52.095 314.635 51.435 317.385 51.435C320.135 51.435 322.335 52.085 324.225 53.385C326.115 54.675 327.535 56.405 328.495 58.555C329.095 59.815 329.455 60.985 329.605 62.065C329.755 63.145 329.905 63.925 330.055 65.635H304.705H304.715Z" fill="white"/>
<path d="M430.925 49.495C428.885 47.085 426.385 45.235 423.425 43.935C420.455 42.645 417.085 41.985 413.305 41.985C406.035 41.985 400.235 44.475 395.905 49.435C391.565 54.405 389.395 61.525 389.395 70.785C389.395 76.125 390.055 80.645 391.385 84.345C392.725 88.055 394.525 91.035 396.785 93.305C399.055 95.565 401.715 97.185 404.795 98.195C407.875 99.195 411.735 99.695 415.295 99.695C427.065 99.695 433.195 93.165 433.195 93.165L430.285 82.935C428.325 84.895 424.605 89.915 414.965 89.915C410.305 89.915 406.735 88.505 404.285 85.685C401.845 82.865 400.615 79.005 400.615 74.115H437.205V69.335C437.205 65.255 436.665 61.535 435.585 58.155C434.505 54.785 432.955 51.885 430.915 49.485L430.925 49.495ZM400.625 65.635C400.695 63.925 400.805 63.145 400.955 62.065C401.105 60.985 401.475 59.815 402.065 58.555C403.025 56.415 404.455 54.685 406.345 53.385C408.235 52.095 410.545 51.435 413.295 51.435C416.045 51.435 418.245 52.085 420.135 53.385C422.025 54.675 423.445 56.405 424.405 58.555C425.005 59.815 425.365 60.985 425.515 62.065C425.665 63.145 425.815 63.925 425.965 65.635H400.615H400.625Z" fill="white"/>
<path d="M466.465 42.655H455.125V99.035H466.465V42.655Z" fill="white"/>
<path d="M466.465 19.855H455.125V31.195H466.465V19.855Z" fill="white"/>
<path d="M529.545 54.275C528.725 51.645 527.245 49.255 525.095 47.105C523.385 45.475 521.365 44.215 519.035 43.325C516.695 42.435 514.085 41.995 511.195 41.995C508.305 41.995 505.655 42.515 503.025 43.555C500.395 44.595 498.115 46.185 496.185 48.335V42.665H485.065V99.045H496.405V64.685C496.405 60.385 497.555 57.215 499.855 55.175C502.155 53.135 504.895 52.115 508.085 52.115C511.275 52.115 513.965 53.115 516.145 55.115C518.335 57.115 519.425 60.305 519.425 64.675V99.035H530.765V63.005C530.765 59.815 530.355 56.905 529.545 54.275Z" fill="white"/>
<path d="M380.475 51.765C369.125 51.765 368.795 65.225 368.795 74.665V99.035H358.045V71.665C358.045 45.095 371.655 41.725 378.405 41.725L380.465 51.755L380.475 51.765Z" fill="white"/>
</g>
<defs>
<clipPath id="clip0_9572_32782">
<rect width="530" height="120" fill="white"/>
</clipPath>
</defs>
</svg>
